<svg id="b1abb492-defa-4f9b-9107-f8774d10efaf" data-name="Слой 1" xmlns="http://www.w3.org/2000/svg" viewBox="0 0 3200 2000"><defs><style>.b3f5b01f-42aa-4c16-a616-2d14245d1fb9{fill:#fff;}.a9857bfc-8452-4ce8-a05a-f2ac4b7d12ee,.f1382d9d-f664-429c-a2a9-52667e32d6dc{fill:#ebf3fa;}.af706728-105e-47f9-899b-8921ab310649{fill:#f3f8fc;}.a9857bfc-8452-4ce8-a05a-f2ac4b7d12ee{opacity:0.6;}.b11ef1da-6ecb-4791-a0e1-f2d1b4623675{fill:#e8f0fd;}.a3cfb1bb-7503-4d0d-964a-d9a265e43bc5{fill:#c0d8fb;}.b54d67f2-9875-43f8-ae29-d664f283d211{fill:#dfebfd;}.f201788b-e6f0-4598-aaf4-c589b25a34e5{fill:#b7d3f3;}.ec92b40c-528f-4414-abe2-f0b16079b756{fill:#deedff;}.f015a682-0e5f-454a-ab2b-e407296d51e6{fill:#2e3552;}.a03565b9-231c-49c7-887a-1158455e6e21{fill:#122544;}.bf0c70bc-a246-414c-90a4-6d7028aac779{fill:#d2e3fc;}.be427af4-f7d1-4d7d-bf31-08e19fc37b08{fill:#82b378;}.aaee1813-8948-4eaa-acd7-85a1292ef96f{fill:#a8d29f;}.e65023aa-1b7e-4ab2-a8b5-0c80f9f2ba2f{fill:#2b478b;}.f10b0756-53eb-4d2d-94c1-676e407f2134{fill:#ea9e6a;}.b81bbd35-7c72-40bf-9cc8-3365c882aa7b{fill:#d88d59;}.b9614d88-1989-4b21-9b9f-f4bd8a8bd680{fill:#8e342e;}.b34f73dd-693c-4fb9-ba78-1c55acb06ec0{fill:#233862;}.ec783063-2cac-40b3-9a6b-d43d93b2c56c{fill:#b24940;}.a3412bd8-9a5a-4f63-a170-a97a47bc59bf{fill:#c65447;}.aa1f5677-d563-437e-b651-51282664c6d1{fill:#f9ddbf;}.a7981aa9-7768-46c9-8703-fcac136d665c{fill:#ed7d2b;}.bf5b0666-de81-4ef3-97f2-3e6105c40546{fill:#ffb27d;}.b6e85940-ec2b-4fdf-9991-ed19e9668573{fill:#ed985f;}.a8cdf11f-5aed-4a2e-bdef-89f813181744{fill:#f99746;}.af2f9888-f9cd-47e0-8b74-826a9fc0d1c6{fill:#ffc397;}.f3ae94e7-ebd9-4789-b83d-ef521a58a3ac{fill:#2c3a64;}</style></defs><rect class="b3f5b01f-42aa-4c16-a616-2d14245d1fb9" width="2200" height="1000"/><path class="f1382d9d-f664-429c-a2a9-52667e32d6dc" d="M1058.4,766.41v716.08l-861.48,3c2.16-31.31-139.64-444.16,42.12-680C497,470.69,717.39,741.46,1008.35,765A476.22,476.22,0,0,0,1058.4,766.41Z"/><path class="af706728-105e-47f9-899b-8921ab310649" d="M3037.85,1468.64c-1.15,8.94-94.48-1.44-95.78,7.36l-582.35,2H1058.4V766.41a460.22,460.22,0,0,0,50.06-4c57.12-7.79,117-27.4,180.46-64.33,656.93-381,1191.82-277.55,1492.16,19.9a895,895,0,0,1,100.11,118.29C3008.86,1017,3066.56,1242.16,3037.85,1468.64Z"/><path class="a9857bfc-8452-4ce8-a05a-f2ac4b7d12ee" d="M3045.07,1356a899,899,0,0,1-7.22,117.71c-1.15,8.94-94.48-1.44-95.78,7.36l-582.35,2H1058.4v-.57L2359.72,1478l582.35-2c1.3-8.8,94.63,1.58,95.78-7.36A898.67,898.67,0,0,0,3045.07,1356Z"/><polygon class="b11ef1da-6ecb-4791-a0e1-f2d1b4623675" points="2788.97 933.84 2788.97 1478.03 1108.46 1478.03 1108.46 1004.48 1237.28 1004.48 1237.28 875.24 1366.1 875.24 1366.1 1049.84 1470.39 1049.84 1470.39 1010.83 1652.05 1010.83 1652.05 1076.78 1731.12 1076.78 1731.12 928.66 1942.75 928.66 1942.75 674.64 2110.1 674.64 2110.1 810.12 2148.26 810.12 2148.26 696.63 2315.61 696.63 2315.61 871.45 2467.28 871.45 2467.28 764.17 2629.49 764.17 2629.49 871.45 2659.73 871.45 2659.73 933.84 2788.97 933.84"/><rect class="a3cfb1bb-7503-4d0d-964a-d9a265e43bc5" x="702.62" y="812.34" width="174.38" height="169.18" rx="12.47"/><rect class="b54d67f2-9875-43f8-ae29-d664f283d211" x="710.18" y="819.67" width="159.27" height="154.52" rx="11.39"/><circle class="f201788b-e6f0-4598-aaf4-c589b25a34e5" cx="789.81" cy="835.11" r="3.61"/><path class="f201788b-e6f0-4598-aaf4-c589b25a34e5" d="M815.35,840.21a3.61,3.61,0,1,1,1.4,4.92A3.61,3.61,0,0,1,815.35,840.21Z"/><path class="f201788b-e6f0-4598-aaf4-c589b25a34e5" d="M840.32,860.05a3.61,3.61,0,1,1-1.08,5A3.61,3.61,0,0,1,840.32,860.05Z"/><circle class="f201788b-e6f0-4598-aaf4-c589b25a34e5" cx="852.69" cy="894.37" r="3.61" transform="translate(-298.97 1342.32) rotate(-67.62)"/><path class="f201788b-e6f0-4598-aaf4-c589b25a34e5" d="M846.37,926.4a3.61,3.61,0,1,1-5.1,0A3.6,3.6,0,0,1,846.37,926.4Z"/><circle class="f201788b-e6f0-4598-aaf4-c589b25a34e5" cx="821.14" cy="951.69" r="3.61"/><circle class="f201788b-e6f0-4598-aaf4-c589b25a34e5" cx="789.81" cy="960.86" r="3.61"/><path class="f201788b-e6f0-4598-aaf4-c589b25a34e5" d="M764.16,840.21a3.61,3.61,0,1,0-1.4,4.92A3.61,3.61,0,0,0,764.16,840.21Z"/><path class="f201788b-e6f0-4598-aaf4-c589b25a34e5" d="M739.19,860.05a3.61,3.61,0,1,0,1.08,5A3.61,3.61,0,0,0,739.19,860.05Z"/><circle class="f201788b-e6f0-4598-aaf4-c589b25a34e5" cx="726.82" cy="894.37" r="3.61"/><path class="f201788b-e6f0-4598-aaf4-c589b25a34e5" d="M733.14,926.4a3.61,3.61,0,1,0,5.11,0A3.6,3.6,0,0,0,733.14,926.4Z"/><circle class="f201788b-e6f0-4598-aaf4-c589b25a34e5" cx="758.37" cy="951.69" r="3.61"/><circle class="f201788b-e6f0-4598-aaf4-c589b25a34e5" cx="792.45" cy="894.37" r="3.61"/><rect class="f201788b-e6f0-4598-aaf4-c589b25a34e5" x="791.96" y="849.25" width="0.99" height="45.13"/><rect class="f201788b-e6f0-4598-aaf4-c589b25a34e5" x="788.75" y="883.44" width="30.41" height="2.96" transform="translate(-374.86 685.38) rotate(-38.14)"/><path class="ec92b40c-528f-4414-abe2-f0b16079b756" d="M1108.46,762.37v711.91H1008.33V764.93A457.59,457.59,0,0,0,1108.46,762.37Z"/><path class="ec92b40c-528f-4414-abe2-f0b16079b756" d="M2881.2,836.24v638H2781.07V717.94A885.68,885.68,0,0,1,2881.2,836.24Z"/><rect class="f015a682-0e5f-454a-ab2b-e407296d51e6" x="99.31" y="1471.53" width="3017.69" height="12.97" rx="4.35"/><polygon class="f201788b-e6f0-4598-aaf4-c589b25a34e5" points="1190.56 1222.99 1174.5 1222.99 1194.17 1471.9 1233.23 1471.9 1190.56 1222.99"/><path class="a03565b9-231c-49c7-887a-1158455e6e21" d="M1509.94,1150.36l-3.44.7a28.57,28.57,0,0,1-33.56-22.27l-3.64-18a28.57,28.57,0,0,1,22.27-33.56l3.45-.69a28.56,28.56,0,0,1,33.55,22.27l3.64,18A28.55,28.55,0,0,1,1509.94,1150.36Z"/><path class="f201788b-e6f0-4598-aaf4-c589b25a34e5" d="M1174.5,1223s87.71-41.17,207.87-13.78L1190.56,1223Z"/><path class="bf0c70bc-a246-414c-90a4-6d7028aac779" d="M1233.23,1474.28,1190.56,1223s134.38-45.12,238.64,0l62,249.7Z"/><path class="be427af4-f7d1-4d7d-bf31-08e19fc37b08" d="M2162.33,1396.47c-2.39,27.26-17.78,35.68-24.55,35s-46.36-15.83-47.22-10.29,23,23.67,39.65,24.52c0,0-31.51,34.75-52.44,24.72s-22.73-25.93-35.79-31.89-24.19-5.94-18.8.14,29,12,36.47,25.19c1.77,3.12,3.49,6,4.8,8.53l-44.09-.09c-14-6.94-25.76-16.53-26.64-26.85-.06-.79-.13-1.55-.18-2.27l-1.36-15.89s-22.64-26.41-10.87-48.32a33.39,33.39,0,0,1,9-10.41s21.1-12.78,38.31-11.73c0,0-13.34,22.35-17.09,35.64-1.33,4.69-1.46,8.24.59,9.3,2.25,1.16,5.16-2.21,8.17-7.62,7.54-13.54,15.71-39.89,15.71-39.89s12.69-1.23,27.13-1.42c6.48-.08,13.31,0,19.5.59,6.84.6,12.9,1.71,16.84,3.6l-2.31,1.92c-2.15,1.8-5.6,4.73-9.44,8.12-11.39,10.07-26.18,24.28-20.65,25.55,4.47,1,18.53-7.31,31-15.6,11.64-7.71,21.94-15.37,21.94-15.37S2164.71,1369.21,2162.33,1396.47Z"/><path class="be427af4-f7d1-4d7d-bf31-08e19fc37b08" d="M2140.37,1397.21s-121.39-4.68-148.19,30c0,0-5.93,17.76-24.17,33.93l-2.85,7.75s21-22.18,28.56-23.52C1993.72,1445.4,1982,1402.39,2140.37,1397.21Z"/><path class="be427af4-f7d1-4d7d-bf31-08e19fc37b08" d="M1973.11,1461c-1,1.14-2.6,2.69-4.83,4.75l0,0a31,31,0,0,0-2.26,2.31,44.63,44.63,0,0,0-3.23,4.06h-5.68a67.92,67.92,0,0,1,10.94-11h0C1968.46,1460.89,1978.92,1454.57,1973.11,1461Z"/><path class="aaee1813-8948-4eaa-acd7-85a1292ef96f" d="M1859.67,1382.07s49-27.42,26.12-64.64c0,0-18.29-22.86-37.88-28.73,0,0,10.45,55.5,0,56.81s-7.18-62.69-7.18-62.69S1789.14,1258,1768.9,1260c0,0,32,54.19,21.55,52.89s-46.36-56.16-46.36-56.16-52.89-9.79-61.38,21.55,5.22,47,13.06,49,58.11,1.31,56.81,7.84-35.26,17-54.2,11.1c0,0,20.9,51.58,48.32,49s35.92-19.59,52.89-20.89,29.39,3.26,20.9,7.83-37.22,1.5-50.93,13.16-24.82,18.84.65,24.06,71.17,2,80.31-17.63Z"/><path class="be427af4-f7d1-4d7d-bf31-08e19fc37b08" d="M1706.87,1288s137.13,44.41,152.8,94c0,0-.66,22.2,13.06,47.67v9.8s-14.37-33.31-22.21-37.88C1850.52,1401.66,1881.21,1358.57,1706.87,1288Z"/><path class="be427af4-f7d1-4d7d-bf31-08e19fc37b08" d="M1885.43,1472h-7.84c-.24-11.34-1.55-24.06-5.42-33.75h0c-.49-1.22-1-2.38-1.58-3.49v0c-1.63-3.18-2.73-5.53-3.42-7.23h0c-4-9.83,5.58,2.24,5.58,2.24A92,92,0,0,1,1885.43,1472Z"/><path class="aaee1813-8948-4eaa-acd7-85a1292ef96f" d="M1937.58,1344.25S1873,1308.1,1903.15,1259c0,0,24.1-30.13,49.92-37.88,0,0-13.77,73.17,0,74.89s9.47-82.63,9.47-82.63,68-32.71,94.68-30.13c0,0-42.17,71.44-28.4,69.72s61.11-74,61.11-74,69.72-12.91,80.91,28.4-6.88,62-17.21,64.56-76.61,1.72-74.89,10.33,46.48,22.38,71.44,14.63c0,0-27.54,68-63.69,64.55s-47.34-25.82-69.72-27.54-38.74,4.3-27.55,10.33,49.07,2,67.14,17.34,32.71,24.84-.86,31.72-93.82,2.58-105.87-23.24Z"/><path class="be427af4-f7d1-4d7d-bf31-08e19fc37b08" d="M2139,1220.3s-180.75,58.53-201.41,124c0,0,.86,29.27-17.22,62.83V1420s18.94-43.9,29.27-49.93C1949.63,1370.07,1909.17,1313.26,2139,1220.3Z"/><path class="be427af4-f7d1-4d7d-bf31-08e19fc37b08" d="M1927.71,1404.11v0c-.91,2.24-2.36,5.35-4.51,9.55l0,0q-1.11,2.19-2.06,4.59h0c-6.19,15.5-7.41,36.91-7.18,53.77l-10.37,0c-1.24-37.57,16.81-65,16.81-65h0C1920.64,1406.74,1932.93,1391.33,1927.71,1404.11Z"/><path class="e65023aa-1b7e-4ab2-a8b5-0c80f9f2ba2f" d="M1616.18,1472.69H1370.64a261.54,261.54,0,0,1-9.6-28c-7-24.49-11.54-51.47-14.42-77.9l-.12-1c-5-45.84-5-89.93-4.31-116.42.39-15.33,1-24.77,1-25.23h0l1.57-.64c13-5.47,25.51-10.18,37.48-14.25a.26.26,0,0,0,.1,0q15.09-5.14,29.07-8.94a425.91,425.91,0,0,1,45.72-10,336.16,336.16,0,0,1,45.13-4.16l1.81,0q5.34-.09,10.33,0c33.62.72,56,7.41,67.29,11.87,1.58.62,2.93,1.2,4,1.72l.45.19c1.28.57,2.27,1,3,1.4a.81.81,0,0,1,.27.15c.34.17.66.35,1,.54l17.7,186.08Z"/><path class="e65023aa-1b7e-4ab2-a8b5-0c80f9f2ba2f" d="M1860.86,1432.47c-24.6,11.42-170.93,21-185,17-7.21-2.08-37.38-28.65-67.73-61.34l0,0c-28.72-30.92-57.67-67.32-67.44-93.51-20.09-53.81-2.82-101.6-2.82-101.6s37.34-.16,52.56,9,102.25,169.49,113.88,173.72,149.49,12.13,165.27,19.62C1869.57,1395.33,1885.44,1421.05,1860.86,1432.47Z"/><path class="f10b0756-53eb-4d2d-94c1-676e407f2134" d="M1504.07,1192.6l0,9.07s2.51,28.33-32.38,32.52-61.34-11-60.43-32.82c3.12-16.94,6.55-28.57,6.76-42.58a98.43,98.43,0,0,0-1.27-17l67.62-1.45,19.92,3.22Z"/><path class="b81bbd35-7c72-40bf-9cc8-3365c882aa7b" d="M1504.26,1143.59l-.19,49a56.93,56.93,0,0,1-24.36,5.42c-31.07,0-62-50-63-56.2Z"/><path class="f10b0756-53eb-4d2d-94c1-676e407f2134" d="M1508.24,1167.4s-86.57,17.63-96.72-36.45-28.15-88.23,26.69-101.77,69.49,5.07,77.27,22.3S1530.5,1161.42,1508.24,1167.4Z"/><path class="b9614d88-1989-4b21-9b9f-f4bd8a8bd680" d="M1532.25,1011.26s-24.15-1.82-52.65-14.16c-23.14-10-52.28,1.1-61.74,6.11a14,14,0,0,1,2.3-5.71s-4.25,3-4.87,7.24c-.44.32-.63.55-.52.62s-4.82-.87-7.91.52c0,0,2.16-.31,2.94,1.08a1.18,1.18,0,0,0,.35.39c-36,17.48-39.28,74.47-27.66,87.64,14,15.85,30.79,51.55,30.79,51.55s6.09-8.45,3.53-22.41,9.5-14,24.72-20.34,2.5-24.12,15.81-34.93,62.19-4.54,61.54-12.79C1537,1049.43,1532.25,1013.12,1532.25,1011.26Z"/><path class="b34f73dd-693c-4fb9-ba78-1c55acb06ec0" d="M1370.64,1472.69a261.54,261.54,0,0,1-9.6-28c-7-24.49-11.54-51.47-14.42-77.9l-.12-1c.19.09.5.6.7.35,9.56-11.61,35.66-24.32,67.26,21.95,6.31,9.21,34,73.81,38.37,84.6Z"/><path class="f10b0756-53eb-4d2d-94c1-676e407f2134" d="M1396.3,1472.69c-.71-4.17.07-9.43,3.33-16,0,0,4-2.63,9.43-5.69,8-4.52,19-10,24-9.12.89.17,2.09.43,3.52.77,11.78,2.83,39.25,11.29,43.4,16.25,3.42,4.07,8.08,9.26,11.29,13.77Z"/><path class="e65023aa-1b7e-4ab2-a8b5-0c80f9f2ba2f" d="M1414.46,1472.69H1183.11a14,14,0,0,1,.17-7.78c6.9-17.43,20.37-46.12,35.88-76.91,11.41-22.65,23.92-46.44,35.72-67.71,16.39-29.54,31.41-54.25,40.23-64.38,7-8,15.74-14.66,24.89-20.17a176.85,176.85,0,0,1,23.22-11.6h0l1.57-.64a204.64,204.64,0,0,1,28.88-9.39s.18,7.31.19,18.54c.05,32.61-1.2,98.33-11.61,114.36-2.9,4.47-8.3,11.22-15,19.14l-.58.67c-3.66,4.29-7.71,8.9-12,13.64-24.15,27-54.73,58.82-58.45,62.68-.27.26-.39.4-.39.4h.45l64.87.9,19.9.28,41.25.56a15.68,15.68,0,0,1,6.77,5.75C1413.05,1456.86,1414.28,1465.36,1414.46,1472.69Z"/><path class="b34f73dd-693c-4fb9-ba78-1c55acb06ec0" d="M1860.86,1432.47c-24.6,11.42-170.93,21-185,17-7.21-2.08-37.38-28.65-67.73-61.34,1.5.2,15.38-22.94,78.67,32.42,0,0,16.57,7.38,61.67,3.25S1851.52,1418.11,1860.86,1432.47Z"/><path class="ec783063-2cac-40b3-9a6b-d43d93b2c56c" d="M1717.11,1472.25H1549.83a13.33,13.33,0,0,1,13.34-13.33h153.94Z"/><polygon class="ec783063-2cac-40b3-9a6b-d43d93b2c56c" points="1716.63 1290.07 1975.25 1290.07 1913.22 1472.25 1652.92 1472.25 1716.63 1290.07"/><polygon class="a3412bd8-9a5a-4f63-a170-a97a47bc59bf" points="1979.06 1290.07 1917.03 1472.25 1656.73 1472.25 1720.44 1290.07 1979.06 1290.07"/><path class="aa1f5677-d563-437e-b651-51282664c6d1" d="M1839.63,1379.48c-1.61,7-8.55,12.6-15.51,12.6s-11.31-5.64-9.7-12.6,8.55-12.61,15.51-12.61S1841.24,1372.51,1839.63,1379.48Z"/><polygon class="ec783063-2cac-40b3-9a6b-d43d93b2c56c" points="1979.06 1290.07 1917.03 1472.25 1795.94 1472.25 1940.98 1290.07 1979.06 1290.07"/><path class="a03565b9-231c-49c7-887a-1158455e6e21" d="M1436.68,1150.36l-3.44.7a28.57,28.57,0,0,1-33.56-22.27l-3.64-18a28.57,28.57,0,0,1,22.27-33.56l3.45-.69a28.56,28.56,0,0,1,33.55,22.27l3.64,18A28.55,28.55,0,0,1,1436.68,1150.36Z"/><path class="a03565b9-231c-49c7-887a-1158455e6e21" d="M1409.85,1085.46c-2.3-4.17-5.69-37.71,3.53-64.41,4.45-12.91,11.66-20.27,20.7-25.24a22.21,22.21,0,0,1,10.66-2.75l9.09.15c-29.92,12.66-36.86,80.43-34.53,87.66a2.27,2.27,0,0,0-.23-.51Z"/><path class="a03565b9-231c-49c7-887a-1158455e6e21" d="M1497.16,1156c-50.28,0-75.16-39.74-75.41-40.14l4.5-2.75-2.25,1.38,2.24-1.38c.24.38,23.67,37.62,70.93,37.62h.95l.05,5.27Z"/><path class="e65023aa-1b7e-4ab2-a8b5-0c80f9f2ba2f" d="M1428.57,1132.72l-1.71.35a14.24,14.24,0,0,1-16.72-11.1l-1.81-9a14.23,14.23,0,0,1,11.09-16.72l1.72-.34a14.23,14.23,0,0,1,16.72,11.09l1.81,9A14.23,14.23,0,0,1,1428.57,1132.72Z"/><path class="a03565b9-231c-49c7-887a-1158455e6e21" d="M1503.41,1157.76h-4.74a4.41,4.41,0,0,1-4.39-4.39h0a4.4,4.4,0,0,1,4.39-4.39h4.74a4.4,4.4,0,0,1,4.39,4.39h0A4.4,4.4,0,0,1,1503.41,1157.76Z"/><path class="b9614d88-1989-4b21-9b9f-f4bd8a8bd680" d="M497.5,1079.07s-42.19,21.57-11.45,67.9c0,0-36.24,4.19-45.36-6.23a29.29,29.29,0,0,0,3,6.78s-35.12-4.6-47.7-17.91,26.65-190.33,120.18-154.1c0,0,83.15,7.58,59.55,101.31s7.41,98.93,7.41,98.93-9.34,2.8-13.5,2.1c0,0-5.7-3.34-6.33-6.9,0,0,.31,5.48,1.59,7.43,0,0-34-2.45-48.59-17.89S489.44,1097.87,497.5,1079.07Z"/><path class="a7981aa9-7768-46c9-8703-fcac136d665c" d="M557.71,1125.38l-3.37.47a27.69,27.69,0,0,1-31.14-23.55l-2.45-17.66a27.69,27.69,0,0,1,23.55-31.14l3.38-.47a27.7,27.7,0,0,1,31.14,23.56l2.45,17.65A27.7,27.7,0,0,1,557.71,1125.38Z"/><path class="bf5b0666-de81-4ef3-97f2-3e6105c40546" d="M567.35,1266.9c-12.59,9.72-20.55,44.8-40.85,50.59-76.08,21.72-116.92-68.63-130.28-112.73a66.24,66.24,0,0,1,25.67-9.34c5.53-1,11.36-1.68,16.2-2.17,8.31-7.06,19.81-34.82,20.51-77l3.67.79,61.52,13.51s-1.79,19.43-2.22,37.73c-.33,14.32-.79,17.74.31,19.45,4.79.78,10.43,13,10.43,13s0,0,0,0A392.24,392.24,0,0,1,567.35,1266.9Z"/><path class="b6e85940-ec2b-4fdf-9991-ed19e9668573" d="M523.8,1130.52s-1.81,19.41-2.23,37.73c-34.55-1.69-52.17-33.61-59.3-51.24Z"/><path class="bf0c70bc-a246-414c-90a4-6d7028aac779" d="M836.72,1449.59s-36.18,1.33-75.47,1.47c-4.64,0-9.35,0-14,0-32-.14-63.45-1.26-76.82-4.71-13.07-3.36-63.36-37.45-103.6-78.73v0c-3.12,7.44-5.48,13.12-5.54,13.57a208.93,208.93,0,0,1-5.55,27.48,333,333,0,0,1-24.85,63.56l-21.54,0-168.23-.25s31.78-48.94,23.24-174.33c-.22-3.17,29.29-104.34,29.29-104.34s22.93-4,49.42-6.15c2.5,2.28,7.65,68.84,40.79,72.69,5.39.62,40,53.44,40,53.44l10.48-54-12.39-71.59c15.9,4.65,24.62,6.33,37.84,11.61A41.76,41.76,0,0,1,580.81,1218c23.16,42.31,98.31,178.79,106,182,7.18,3,34.25,8.39,62.89,13.62h0c38.32,7,79.46,13.64,79.46,13.64Z"/><path class="bf0c70bc-a246-414c-90a4-6d7028aac779" d="M542.86,1472.21l-12,0,0,0Z"/><path class="bf5b0666-de81-4ef3-97f2-3e6105c40546" d="M534.05,1149s-81.81-1.6-80-52.53-7.57-85.44,44.74-86.57,61.77,18.66,65.31,35.8S555.38,1148.12,534.05,1149Z"/><path class="f201788b-e6f0-4598-aaf4-c589b25a34e5" d="M761.25,1451.06c-4.64,0-9.35,0-14,0-32-.14-63.45-1.26-76.82-4.71-13.07-3.36-63.36-37.45-103.6-78.73v0s8.48-32.49,12.14-37.93,18.1,47.42,51.83,68.93,86.51,36.58,112.14,30.48C760.17,1425,761.94,1440.49,761.25,1451.06Z"/><path class="b3f5b01f-42aa-4c16-a616-2d14245d1fb9" d="M518,1120.67s.52,6.09,13.94,7.06c0,0,11.26.81,11.73-5.75C543.65,1122,533.4,1115.82,518,1120.67Z"/><path class="a03565b9-231c-49c7-887a-1158455e6e21" d="M522.41,1141.26c-46.48-14.68-57.88-58.68-58-59.13l4.95-1.23-2.47.62,2.47-.62c.11.42,10.9,41.69,54.58,55.49l.88.28-1.48,4.88Z"/><path class="a7981aa9-7768-46c9-8703-fcac136d665c" d="M527.68,1144.71l-4.39-1.39a4.26,4.26,0,0,1-2.77-5.34h0a4.26,4.26,0,0,1,5.34-2.77l4.38,1.38a4.27,4.27,0,0,1,2.78,5.34h0A4.28,4.28,0,0,1,527.68,1144.71Z"/><path class="b9614d88-1989-4b21-9b9f-f4bd8a8bd680" d="M538.7,1003.15s-21,62-52.37,72.57-41.83-1.94-41.83-1.94,23.15-21.26,25.81-55.67C470.31,1018.11,521.07,977.78,538.7,1003.15Z"/><path class="b9614d88-1989-4b21-9b9f-f4bd8a8bd680" d="M499.58,1021.41s42.66-2.39,55.4,9.76c9.2,8.75,9,13.33,9.69,25,0,0,18.66-28.77-.53-48.91C543.78,985.91,499.58,1021.41,499.58,1021.41Z"/><path class="b9614d88-1989-4b21-9b9f-f4bd8a8bd680" d="M536.88,1009.72s-10.68,59.36-49.73,80.92c0,0,37.82-38.71,38.49-77.44S536.88,1009.72,536.88,1009.72Z"/><path class="b9614d88-1989-4b21-9b9f-f4bd8a8bd680" d="M396,1129.61c12.58,13.31,47.69,17.92,47.69,17.92a29.57,29.57,0,0,1-3-6.79c18.05,14.63,62.37,4,62.37,4-35.36-7.8-23.91-58.82-11.88-61,7-38.48,20.9-86.38,27.41-107.9-1.56-.25-2.45-.33-2.45-.33C422.63,939.28,383.39,1116.31,396,1129.61Z"/><path class="a7981aa9-7768-46c9-8703-fcac136d665c" d="M472.77,1120.15l-3.38.47a27.7,27.7,0,0,1-31.14-23.56l-2.45-17.65a27.69,27.69,0,0,1,23.55-31.14l3.38-.47a27.69,27.69,0,0,1,31.14,23.55l2.45,17.66A27.69,27.69,0,0,1,472.77,1120.15Z"/><path class="a7981aa9-7768-46c9-8703-fcac136d665c" d="M450.67,1055.75c-2-3.77,5-33,15.39-55.69,5-11,17.63-25.64,26.65-29.42,3.26-1.37,7.58-.81,11.11,0,2.56.58,9.75,3.93,9.75,3.93-29.63,9.24-55.37,71.32-53.51,77.75a2.24,2.24,0,0,0-.19-.45Z"/><path class="a8cdf11f-5aed-4a2e-bdef-89f813181744" d="M466,1102.59l-1.68.23a13.79,13.79,0,0,1-15.51-11.73l-1.22-8.8a13.79,13.79,0,0,1,11.73-15.51l1.68-.24a13.8,13.8,0,0,1,15.52,11.74l1.22,8.8A13.79,13.79,0,0,1,466,1102.59Z"/><path class="bf5b0666-de81-4ef3-97f2-3e6105c40546" d="M664.48,1420.1s35.08-2,38.49-.18c5.54,3,24.38,15.12,27.34,18.65S741,1456.24,741,1456.24s-3.34.93-4.86-.43-13-13.52-13-13.52l11.76,17.86s-4.07-.18-5.68-2-12.6-13-12.6-13l-3.75-.73a40.21,40.21,0,0,1,5.89,5.82,36.62,36.62,0,0,1,3.43,5.74,27.16,27.16,0,0,1-4.39-1.06c-1.05-.5-10.9-9.13-10.9-9.13l5.22,7.13s-3.52-.17-4.67-1-8.83-7.85-10.2-7.83-11.15-.39-15.36-2.62-17.41-7.34-17.41-7.34Z"/><path class="f201788b-e6f0-4598-aaf4-c589b25a34e5" d="M447.87,1177.34s-23.46,6.84-28.81,12.23c0,0,24.52,62.69,59.88,92l9.46-6.71v15.25l35.4,23.16S446.05,1196.3,447.87,1177.34Z"/><path class="f201788b-e6f0-4598-aaf4-c589b25a34e5" d="M555.7,1408.64a333,333,0,0,1-24.85,63.56h12l-12,0H419.06s13,0,12.94-.08c-.31-1.14,18.9-53.2-12.94-74.54s-43.47-73.93-43.47-73.93l101.5-24.8s41.82,61,53.73,72.66c9.14,8.93,30.43,9.6,30.43,9.6Z"/><path class="f201788b-e6f0-4598-aaf4-c589b25a34e5" d="M521.88,1187.69s10.8,85.3,1.92,125.54c0,0,14.49-26.62,16.52-31.5l-2.44-14.63,9.35,3.25s-8.25-68-15.71-79.93-10.21-13.08-10.21-13.08Z"/><path class="bf5b0666-de81-4ef3-97f2-3e6105c40546" d="M836.72,1449.59s-45.26,1.68-89.5,1.47c-11-17,2.46-37.42,2.46-37.42h0c38.32,7,79.46,13.64,79.46,13.64Z"/><path class="a7981aa9-7768-46c9-8703-fcac136d665c" d="M841,1472.25H673.73a13.33,13.33,0,0,1,13.34-13.33H841Z"/><polygon class="a7981aa9-7768-46c9-8703-fcac136d665c" points="1099.15 1290.07 1037.12 1472.25 776.82 1472.25 840.53 1290.07 1099.15 1290.07"/><polygon class="a8cdf11f-5aed-4a2e-bdef-89f813181744" points="1099.15 1290.07 1037.69 1470.57 1037.12 1472.25 780.62 1472.25 844.34 1290.07 1099.15 1290.07"/><path class="af2f9888-f9cd-47e0-8b74-826a9fc0d1c6" d="M963.53,1379.48c-1.61,7-8.55,12.6-15.51,12.6s-11.31-5.64-9.7-12.6,8.55-12.61,15.52-12.61S965.14,1372.51,963.53,1379.48Z"/><polygon class="a7981aa9-7768-46c9-8703-fcac136d665c" points="1099.15 1290.07 1037.69 1470.57 919.84 1470.57 1063.54 1290.07 1099.15 1290.07"/><path class="bf5b0666-de81-4ef3-97f2-3e6105c40546" d="M664.52,1434.27s-86.11,7.52-133.7,5.4v-46.76c31.18,8.61,133.66,27.19,133.66,27.19Z"/><path class="bf0c70bc-a246-414c-90a4-6d7028aac779" d="M419.06,1189.57s-49.25,1.12-64.49,17.58,15.12,109.5,15.12,109.5,91.8,112.42,137.72,120.35c0,0,20.06,2.74,29.43,2.89,0,0-9.18-26.74,7.9-43.52,0,0-19.66-5.5-20.48-7.94S419.06,1189.57,419.06,1189.57Z"/><path class="f3ae94e7-ebd9-4789-b83d-ef521a58a3ac" d="M2477,977.69s-49.88-18.56-81,17.87c-17.87,20.89-132.12,238.7-130.76,257.77s12.26,28.6,12.26,28.6-4.76-16.68-1.19-25.37c0,0-2.3,29.37,15.84,41.88,9.44,6.52,244.64-6.24,265.08-34.73,44.44-61.93-52.61-94-50.23-160.89C2508.36,1064,2546.47,981.6,2477,977.69Z"/><path class="a7981aa9-7768-46c9-8703-fcac136d665c" d="M2524.54,1116.42l-3.34.67a27.69,27.69,0,0,1-32.53-21.59l-3.53-17.47a27.69,27.69,0,0,1,21.59-32.53l3.34-.68a27.69,27.69,0,0,1,32.53,21.6l3.53,17.47A27.69,27.69,0,0,1,2524.54,1116.42Z"/><path class="a8cdf11f-5aed-4a2e-bdef-89f813181744" d="M2737.94,1471.92H2581.89c-26.47-42-49.74-98.75-55.16-142.93-2.59-21-1.15-39.1,5.86-51.49,21.8-38.5-12.78-83.7-12.78-83.7s47.61,13.47,58.67,52.72c11.28,40,41.54,173,41.54,173l115.87,23.84C2741.34,1457,2737.94,1471.92,2737.94,1471.92Z"/><path class="a7981aa9-7768-46c9-8703-fcac136d665c" d="M2737.94,1471.92H2581.89c-26.47-42-49.74-98.75-55.16-142.93l23.15-7.09s29.28,133.68,46.31,135.73S2737.94,1471.92,2737.94,1471.92Z"/><path class="bf5b0666-de81-4ef3-97f2-3e6105c40546" d="M2542.86,1257.08c-12,10.47-27.41,19.74-47.31,26.76-74.6,26.36-111.27-35.07-127.32-78.27a66.37,66.37,0,0,1,25.05-10.9c5.46-1.28,11.24-2.37,16-3.16,7.86-7.56,17.63-36,15.74-78.15l3.71.56,62.24,9.7s-.6,19.5.09,37.79c.56,14.32,1.93,27.9,5,30.92,4.83.49,7.73.83,7.73.83l0,.06A390.78,390.78,0,0,1,2542.86,1257.08Z"/><path class="b6e85940-ec2b-4fdf-9991-ed19e9668573" d="M2491,1123.63s-.61,19.49.1,37.79c-34.59.44-54.14-30.33-62.34-47.49Z"/><path class="a8cdf11f-5aed-4a2e-bdef-89f813181744" d="M2572.52,1321.9c-.17,1.34-16.8,55.42-17,56.77-5.77,45.28-16.22,93.59-16.22,93.59l-22.85,0-150.8-.29s18.19-54.9-29.8-139.06q-2.37-4.14-4.94-8.37c-6.83-11.22,36.29-131.24,36.29-131.24s18.89-3.34,45.37-5.48c2.51,2.29,20.9,69.6,54.2,71.65,43.47,2.68,27-72.32,27-72.32,17.71,3.55,24.09,4.85,46.82,15.74C2540.6,1202.84,2573.44,1314.51,2572.52,1321.9Z"/><path class="bf5b0666-de81-4ef3-97f2-3e6105c40546" d="M2502.37,1141.46s-81.75,3.43-83.1-47.52-12.81-84.81,39.33-89.15,62.8,14.82,67.38,31.72S2523.61,1139.25,2502.37,1141.46Z"/><path class="b3f5b01f-42aa-4c16-a616-2d14245d1fb9" d="M2484.59,1114.15s.9,6.06,14.35,6.19c0,0,11.29.12,11.36-6.45C2510.3,1113.89,2499.68,1108.37,2484.59,1114.15Z"/><path class="a03565b9-231c-49c7-887a-1158455e6e21" d="M2490.28,1134.44c-47.3-11.8-61.38-55-61.52-55.45l4.87-1.53-2.43.76,2.43-.77c.13.41,13.44,40.94,57.89,52l.89.22-1.18,5Z"/><path class="f3ae94e7-ebd9-4789-b83d-ef521a58a3ac" d="M2495.75,1137.55l-4.46-1.11a4.27,4.27,0,0,1-3.1-5.16h0a4.27,4.27,0,0,1,5.16-3.1l4.46,1.11a4.28,4.28,0,0,1,3.1,5.16h0A4.27,4.27,0,0,1,2495.75,1137.55Z"/><path class="f3ae94e7-ebd9-4789-b83d-ef521a58a3ac" d="M2456.05,973.09s52.64-8.21,74.42,35.61c16.58,33.36,2.75,54.19-3.75,60.57,0,0-8.59-47.91-24.68-52,0,0-10.37-3.16-17.45,5.06s-17.3,44.89-29.05,50.5c0,0-36.47,9-38.26-3.72s-.79-52.35,8.4-58.73S2456.05,973.09,2456.05,973.09Z"/><path class="a7981aa9-7768-46c9-8703-fcac136d665c" d="M2439.43,1116.42l-3.34.67a27.69,27.69,0,0,1-32.53-21.59L2400,1078a27.69,27.69,0,0,1,21.59-32.53l3.34-.68a27.69,27.69,0,0,1,32.53,21.6l3.53,17.47A27.69,27.69,0,0,1,2439.43,1116.42Z"/><path class="a7981aa9-7768-46c9-8703-fcac136d665c" d="M2413.42,1053.49c-2.24-3.63-5.52-32.86,3.42-56.13a38.57,38.57,0,0,1,20.07-22,23.43,23.43,0,0,1,10.33-2.4l8.81.13c-29,11-35.73,70.1-33.47,76.4a2.22,2.22,0,0,0-.22-.44Z"/><path class="a8cdf11f-5aed-4a2e-bdef-89f813181744" d="M2431.57,1099.31l-1.66.34a13.81,13.81,0,0,1-16.21-10.76l-1.76-8.71A13.8,13.8,0,0,1,2422.7,1064l1.66-.33a13.79,13.79,0,0,1,16.21,10.76l1.76,8.7A13.79,13.79,0,0,1,2431.57,1099.31Z"/><path class="a7981aa9-7768-46c9-8703-fcac136d665c" d="M2365.67,1471.92s18.19-54.9-29.8-139.06l17.87-22.33s31.65,89.64,71.2,115.78,85.92,20.63,91.53,45.9Z"/><path class="a8cdf11f-5aed-4a2e-bdef-89f813181744" d="M2367.22,1193.25s-32.54,2.83-54.33,41.33-63.17,182.36-63.17,237.34h174.17s3.41-15-2-28.59l-107.78-20.8s64.87-96.33,65.55-137.88S2367.22,1193.25,2367.22,1193.25Z"/><path class="bf5b0666-de81-4ef3-97f2-3e6105c40546" d="M2424.94,1454.23s33.94-3.32,39.56-1.79,21.7,8.17,25.28,10.47,10.47,9,10.47,9-4.34.82-6.9.25-10.21-1.09-12.25-1.26-9.37,1.34-9.37,1.34h-52.61Z"/><path class="b34f73dd-693c-4fb9-ba78-1c55acb06ec0" d="M2732.26,1472.25H2565a13.33,13.33,0,0,1,13.34-13.33h153.94Z"/><polygon class="b34f73dd-693c-4fb9-ba78-1c55acb06ec0" points="2990.4 1290.07 2928.37 1472.25 2668.07 1472.25 2731.78 1290.07 2990.4 1290.07"/><polygon class="e65023aa-1b7e-4ab2-a8b5-0c80f9f2ba2f" points="2990.4 1290.07 2928.94 1470.57 2928.37 1472.25 2671.87 1472.25 2735.59 1290.07 2990.4 1290.07"/><path class="a8cdf11f-5aed-4a2e-bdef-89f813181744" d="M2854.78,1379.48c-1.61,7-8.56,12.6-15.52,12.6s-11.3-5.64-9.69-12.6,8.55-12.61,15.51-12.61S2856.38,1372.51,2854.78,1379.48Z"/><polygon class="b34f73dd-693c-4fb9-ba78-1c55acb06ec0" points="2990.4 1290.07 2928.94 1470.57 2811.09 1470.57 2954.79 1290.07 2990.4 1290.07"/></svg>