<svg width="200" height="30" viewBox="0 0 67 12" fill="none" xmlns="http://www.w3.org/2000/svg">
<path d="M6.23 4.78C6.454 4.78 6.62667 4.808 6.748 4.864C6.86933 4.92 6.93 5.05067 6.93 5.256C6.93 5.60133 6.636 5.774 6.048 5.774C6.076 6.502 5.824 7.104 5.292 7.58C4.76933 8.04667 4.102 8.28 3.29 8.28C2.506 8.28 1.82933 8.00933 1.26 7.468C0.7 6.92667 0.42 6.13333 0.42 5.088C0.42 4.68667 0.480667 4.28533 0.602 3.884C0.723333 3.47333 0.900667 3.086 1.134 2.722C1.37667 2.358 1.70333 2.064 2.114 1.84C2.534 1.60667 3.00533 1.49 3.528 1.49C4.06933 1.49 4.57333 1.64867 5.04 1.966C5.50667 2.28333 5.74 2.61467 5.74 2.96C5.74 3.1 5.684 3.226 5.572 3.338C5.46 3.44067 5.32933 3.492 5.18 3.492C5.012 3.492 4.86267 3.44533 4.732 3.352C4.61067 3.25867 4.51733 3.156 4.452 3.044C4.38667 2.92267 4.284 2.81533 4.144 2.722C4.004 2.62867 3.836 2.582 3.64 2.582C3.11733 2.582 2.66 2.81533 2.268 3.282C1.876 3.74867 1.68 4.36467 1.68 5.13C1.68 6.52067 2.27267 7.216 3.458 7.216C3.91533 7.216 4.27 7.10867 4.522 6.894C4.774 6.67 4.9 6.44133 4.9 6.208C4.9 5.928 4.802 5.788 4.606 5.788C3.55133 5.788 3.024 5.55467 3.024 5.088C3.024 4.724 3.22933 4.542 3.64 4.542C3.78933 4.542 3.96667 4.57 4.172 4.626C4.62 4.74733 5.05867 4.808 5.488 4.808C5.544 4.808 5.66067 4.80333 5.838 4.794C6.02467 4.78467 6.15533 4.78 6.23 4.78ZM9.76456 8.28C9.40056 8.28 9.12056 8.196 8.92456 8.028C8.7379 7.86933 8.64456 7.65 8.64456 7.37C8.64456 7.118 8.70523 6.85667 8.82656 6.586C8.95723 6.306 9.02256 6.11933 9.02256 6.026C9.02256 5.92333 8.98056 5.858 8.89656 5.83C8.8219 5.79267 8.70523 5.76467 8.54656 5.746C8.39723 5.72733 8.27123 5.69467 8.16856 5.648C7.9259 6.70267 7.6179 7.43067 7.24456 7.832C7.1419 7.944 6.99723 8 6.81056 8C6.67056 8 6.5539 7.95333 6.46056 7.86C6.3579 7.75733 6.30656 7.62667 6.30656 7.468C6.30656 7.356 6.4279 7.09 6.67056 6.67C6.91323 6.24067 7.08123 5.788 7.17456 5.312C6.94123 5.16267 6.82456 4.92 6.82456 4.584C6.82456 4.35067 6.88523 4.14533 7.00656 3.968C7.1279 3.79067 7.30056 3.702 7.52456 3.702C7.72056 3.702 7.88856 3.786 8.02856 3.954C8.1779 4.122 8.25256 4.346 8.25256 4.626C8.25256 4.766 8.42056 4.836 8.75656 4.836C8.84056 4.836 8.96656 4.82667 9.13456 4.808C9.30256 4.78933 9.41456 4.78 9.47056 4.78C9.62923 4.78 9.7739 4.85933 9.90456 5.018C10.0446 5.17667 10.1146 5.368 10.1146 5.592C10.1146 5.75067 10.0866 5.89067 10.0306 6.012C9.79723 6.55333 9.68056 6.90333 9.68056 7.062C9.68056 7.19267 9.7599 7.258 9.91856 7.258C10.1426 7.258 10.3806 7.15533 10.6326 6.95C10.8846 6.73533 11.0759 6.628 11.2066 6.628C11.3372 6.628 11.4446 6.67 11.5286 6.754C11.6126 6.838 11.6546 6.92667 11.6546 7.02C11.6546 7.22533 11.5659 7.41667 11.3886 7.594C10.9312 8.05133 10.3899 8.28 9.76456 8.28ZM14.8728 6.628C15.0035 6.628 15.1108 6.67 15.1948 6.754C15.2788 6.838 15.3208 6.92667 15.3208 7.02C15.3208 7.31867 15.1061 7.60333 14.6768 7.874C14.2568 8.14467 13.6921 8.28 12.9828 8.28C12.3388 8.28 11.8255 8.084 11.4428 7.692C11.0695 7.29067 10.8828 6.81 10.8828 6.25C10.8828 6.09133 10.9061 5.92333 10.9528 5.746C10.9995 5.55933 11.0741 5.36333 11.1768 5.158C11.2888 4.94333 11.4568 4.766 11.6808 4.626C11.9141 4.486 12.1895 4.416 12.5068 4.416C12.8988 4.416 13.2068 4.53267 13.4308 4.766C13.6641 4.99933 13.7808 5.29333 13.7808 5.648C13.7808 6.31067 13.4401 6.838 12.7588 7.23C13.2535 7.454 13.8321 7.30467 14.4948 6.782C14.6255 6.67933 14.7515 6.628 14.8728 6.628ZM12.7588 5.774C12.7588 5.69 12.7308 5.61533 12.6748 5.55C12.6281 5.48467 12.5628 5.452 12.4788 5.452C12.3295 5.452 12.1988 5.54067 12.0868 5.718C11.9748 5.886 11.9188 6.082 11.9188 6.306C11.9188 6.51133 11.9561 6.66067 12.0308 6.754C12.2455 6.65133 12.4181 6.50667 12.5488 6.32C12.6888 6.124 12.7588 5.942 12.7588 5.774ZM18.5369 6.628C18.6675 6.628 18.7749 6.67 18.8589 6.754C18.9429 6.838 18.9849 6.92667 18.9849 7.02C18.9849 7.31867 18.7702 7.60333 18.3409 7.874C17.9209 8.14467 17.3562 8.28 16.6469 8.28C16.0029 8.28 15.4895 8.084 15.1069 7.692C14.7335 7.29067 14.5469 6.81 14.5469 6.25C14.5469 6.09133 14.5702 5.92333 14.6169 5.746C14.6635 5.55933 14.7382 5.36333 14.8409 5.158C14.9529 4.94333 15.1209 4.766 15.3449 4.626C15.5782 4.486 15.8535 4.416 16.1709 4.416C16.5629 4.416 16.8709 4.53267 17.0949 4.766C17.3282 4.99933 17.4449 5.29333 17.4449 5.648C17.4449 6.31067 17.1042 6.838 16.4229 7.23C16.9175 7.454 17.4962 7.30467 18.1589 6.782C18.2895 6.67933 18.4155 6.628 18.5369 6.628ZM16.4229 5.774C16.4229 5.69 16.3949 5.61533 16.3389 5.55C16.2922 5.48467 16.2269 5.452 16.1429 5.452C15.9935 5.452 15.8629 5.54067 15.7509 5.718C15.6389 5.886 15.5829 6.082 15.5829 6.306C15.5829 6.51133 15.6202 6.66067 15.6949 6.754C15.9095 6.65133 16.0822 6.50667 16.2129 6.32C16.3529 6.124 16.4229 5.942 16.4229 5.774ZM22.3689 7.202C22.4436 7.202 22.5276 7.18333 22.6209 7.146C22.7143 7.09933 22.7843 7.05733 22.8309 7.02L23.0549 6.866L23.1949 6.754C23.3069 6.67 23.4283 6.628 23.5589 6.628C23.6523 6.628 23.7456 6.67 23.8389 6.754C23.9323 6.82867 23.9789 6.92667 23.9789 7.048C23.9789 7.14133 23.9556 7.23467 23.9089 7.328C23.7783 7.57067 23.5449 7.78533 23.2089 7.972C22.8823 8.14933 22.5649 8.238 22.2569 8.238C21.9209 8.238 21.6409 8.14467 21.4169 7.958C21.1929 7.77133 21.0809 7.48667 21.0809 7.104C21.0809 6.91733 21.0996 6.67467 21.1369 6.376C21.1743 6.07733 21.1929 5.88133 21.1929 5.788C21.1929 5.48 21.0996 5.326 20.9129 5.326C20.7076 5.326 20.4649 5.50333 20.1849 5.858C19.9049 6.21267 19.6856 6.59067 19.5269 6.992C19.5363 7.412 19.4943 7.706 19.4009 7.874C19.3076 8.042 19.1443 8.126 18.9109 8.126C18.6123 8.126 18.4349 7.85533 18.3789 7.314C18.3696 7.118 18.3649 6.348 18.3649 5.004C18.3649 4.82667 18.4209 4.668 18.5329 4.528C18.6543 4.37867 18.7989 4.304 18.9669 4.304C19.0603 4.304 19.1349 4.30867 19.1909 4.318C19.2469 4.32733 19.2936 4.35067 19.3309 4.388C19.3683 4.416 19.3963 4.444 19.4149 4.472C19.4429 4.5 19.4616 4.556 19.4709 4.64C19.4803 4.71467 19.4849 4.78 19.4849 4.836C19.4849 4.892 19.4849 4.99 19.4849 5.13C19.4943 5.27 19.4989 5.39133 19.4989 5.494C19.7043 5.14867 19.9516 4.85933 20.2409 4.626C20.5396 4.39267 20.8289 4.276 21.1089 4.276C21.4823 4.276 21.7576 4.38333 21.9349 4.598C22.1216 4.80333 22.2149 5.05067 22.2149 5.34C22.2149 5.57333 22.1916 5.858 22.1449 6.194C22.1076 6.53 22.0889 6.75867 22.0889 6.88C22.0889 7.09467 22.1823 7.202 22.3689 7.202ZM28.4228 4.99C28.4975 4.99 28.5722 5.02733 28.6468 5.102C28.7308 5.16733 28.7728 5.256 28.7728 5.368C28.7728 5.592 28.6655 5.774 28.4508 5.914C28.2455 6.04467 27.9702 6.11 27.6248 6.11C27.2422 6.11 26.9388 6.054 26.7148 5.942C26.8082 6.138 26.8548 6.362 26.8548 6.614C26.8548 7.062 26.6775 7.44467 26.3228 7.762C25.9682 8.07 25.5482 8.224 25.0628 8.224C24.7828 8.224 24.5402 8.17267 24.3348 8.07C24.1295 7.96733 23.9615 7.80867 23.8308 7.594C23.7095 7.37933 23.6068 7.16467 23.5228 6.95C23.4482 6.726 23.3922 6.44133 23.3548 6.096C23.3268 5.74133 23.3082 5.438 23.2988 5.186C23.2895 4.92467 23.2848 4.60267 23.2848 4.22C23.2848 3.24 23.3268 2.33 23.4108 1.49C23.4668 0.958 23.7002 0.692 24.1108 0.692C24.3442 0.692 24.5122 0.776 24.6148 0.944C24.7175 1.10267 24.7688 1.36867 24.7688 1.742C24.7688 2.106 24.7035 2.91333 24.5728 4.164C24.4422 5.40533 24.3768 6.04933 24.3768 6.096C24.3768 6.32 24.4375 6.54867 24.5588 6.782C24.6802 7.006 24.8715 7.118 25.1328 7.118C25.3568 7.118 25.5295 7.04333 25.6508 6.894C25.7722 6.73533 25.8328 6.54867 25.8328 6.334C25.8328 6.10067 25.7768 5.9 25.6648 5.732C25.2542 5.66667 25.0488 5.47533 25.0488 5.158C25.0488 4.962 25.0955 4.80333 25.1888 4.682C25.2915 4.56067 25.4268 4.5 25.5948 4.5C25.7255 4.5 25.9915 4.60733 26.3928 4.822C26.8035 5.02733 27.1908 5.13 27.5548 5.13C27.7322 5.13 27.9142 5.10667 28.1008 5.06C28.2875 5.01333 28.3948 4.99 28.4228 4.99ZM32.4062 6.628C32.5368 6.628 32.6442 6.67 32.7282 6.754C32.8122 6.838 32.8542 6.92667 32.8542 7.02C32.8542 7.22533 32.7655 7.41667 32.5882 7.594C32.1588 8.02333 31.6782 8.238 31.1462 8.238C30.8848 8.238 30.6562 8.18667 30.4602 8.084C30.2642 7.98133 30.1335 7.86 30.0682 7.72C29.9562 7.84133 29.7882 7.94867 29.5642 8.042C29.3402 8.13533 29.1208 8.182 28.9062 8.182C28.5422 8.182 28.2295 8.06533 27.9682 7.832C27.7068 7.58933 27.5762 7.258 27.5762 6.838C27.5762 6.25933 27.8002 5.71333 28.2482 5.2C28.6962 4.67733 29.2188 4.416 29.8162 4.416C30.0962 4.416 30.3528 4.514 30.5862 4.71C30.9875 4.71 31.1882 4.79867 31.1882 4.976C31.1882 5.21867 31.1415 5.578 31.0482 6.054C30.9642 6.53 30.9222 6.78667 30.9222 6.824C30.9222 7.076 31.0202 7.202 31.2162 7.202C31.3842 7.202 31.5942 7.10867 31.8462 6.922C32.0982 6.726 32.2848 6.628 32.4062 6.628ZM29.0742 7.062C29.3635 7.062 29.6482 6.908 29.9282 6.6C30.0588 6.45067 30.1242 6.16133 30.1242 5.732C30.1242 5.66667 30.1008 5.61067 30.0542 5.564C30.0075 5.51733 29.9515 5.494 29.8862 5.494C29.5595 5.494 29.2702 5.61067 29.0182 5.844C28.7755 6.07733 28.6542 6.32467 28.6542 6.586C28.6542 6.894 28.7942 7.05267 29.0742 7.062ZM35.9939 7.496C36.3486 7.29067 36.5866 7.13667 36.7079 7.034C37.0346 6.76333 37.2679 6.628 37.4079 6.628C37.5199 6.628 37.6226 6.67 37.7159 6.754C37.8092 6.82867 37.8559 6.92667 37.8559 7.048C37.8559 7.22533 37.7812 7.39333 37.6319 7.552C37.3892 7.81333 36.8759 8.10733 36.0919 8.434C36.0826 8.91933 36.0686 9.23667 36.0499 9.386C36.0126 9.95533 35.8632 10.4033 35.6019 10.73C35.3406 11.066 34.9906 11.234 34.5519 11.234C34.1879 11.234 33.8752 11.1173 33.6139 10.884C33.3526 10.6507 33.2219 10.3613 33.2219 10.016C33.2219 9.60533 33.3806 9.24133 33.6979 8.924C34.0246 8.60667 34.4492 8.30333 34.9719 8.014C34.9626 7.874 34.9579 7.68267 34.9579 7.44C34.6032 7.90667 34.2112 8.14 33.7819 8.14C33.5019 8.14 33.2126 8.04667 32.9139 7.86C32.6152 7.67333 32.4332 7.42133 32.3679 7.104C32.2839 6.684 32.2419 6.26867 32.2419 5.858V5.69V5.48C32.2419 5.43333 32.2419 5.36333 32.2419 5.27C32.2512 5.17667 32.2606 5.102 32.2699 5.046C32.2886 4.99 32.3072 4.92 32.3259 4.836C32.3446 4.752 32.3679 4.68667 32.3959 4.64C32.4332 4.584 32.4706 4.53267 32.5079 4.486C32.5546 4.43933 32.6106 4.40667 32.6759 4.388C32.7412 4.36 32.8159 4.346 32.8999 4.346C33.2266 4.346 33.3899 4.584 33.3899 5.06C33.3899 5.19067 33.3759 5.40067 33.3479 5.69C33.3199 5.97 33.3059 6.17067 33.3059 6.292C33.3059 6.75867 33.4552 6.992 33.7539 6.992C34.0059 6.992 34.2626 6.81933 34.5239 6.474C34.7852 6.11933 34.9159 5.72733 34.9159 5.298C34.9159 4.97133 34.9532 4.738 35.0279 4.598C35.1119 4.44867 35.2566 4.374 35.4619 4.374C35.6859 4.374 35.8306 4.44867 35.8959 4.598C35.9706 4.738 36.0079 4.99 36.0079 5.354C36.0079 5.40067 36.0032 5.68533 35.9939 6.208C35.9846 6.72133 35.9846 7.15067 35.9939 7.496ZM34.6779 10.142C34.9112 10.1327 35.0279 9.74067 35.0279 8.966C34.5986 9.22733 34.3839 9.526 34.3839 9.862C34.3839 10.0487 34.4819 10.142 34.6779 10.142ZM43.3525 1.35C43.9685 1.35 44.4772 1.52733 44.8785 1.882C45.2892 2.23667 45.4945 2.736 45.4945 3.38C45.4945 4.25733 45.1445 4.99 44.4445 5.578C43.7539 6.15667 42.8672 6.45067 41.7845 6.46C41.7752 6.55333 41.7705 6.74 41.7705 7.02C41.7705 7.188 41.7799 7.38867 41.7985 7.622C41.8172 7.846 41.8265 7.972 41.8265 8C41.8265 8.15867 41.7659 8.28 41.6445 8.364C41.5232 8.448 41.3925 8.49 41.2525 8.49C41.0192 8.49 40.8652 8.38267 40.7905 8.168C40.7159 7.95333 40.6785 7.58 40.6785 7.048C40.6785 6.84267 40.6832 6.614 40.6925 6.362C40.3472 6.25933 40.1745 6.096 40.1745 5.872C40.1745 5.58267 40.3379 5.438 40.6645 5.438H40.7065C40.7159 4.81267 40.6925 4.25267 40.6365 3.758C40.5805 3.254 40.5245 2.862 40.4685 2.582C40.4125 2.29267 40.3845 2.106 40.3845 2.022C40.3845 1.90067 40.4359 1.784 40.5385 1.672C40.6505 1.55067 40.8185 1.49 41.0425 1.49C41.2572 1.49 41.3972 1.56 41.4625 1.7C41.5279 1.84 41.5605 2.04067 41.5605 2.302C42.0459 1.66733 42.6432 1.35 43.3525 1.35ZM41.7845 5.48C42.0645 5.47067 42.3352 5.438 42.5965 5.382C42.8672 5.31667 43.1472 5.214 43.4365 5.074C43.7352 4.934 43.9732 4.71933 44.1505 4.43C44.3372 4.14067 44.4305 3.79533 44.4305 3.394C44.4305 3.26333 44.4165 3.13267 44.3885 3.002C44.3605 2.87133 44.2625 2.72667 44.0945 2.568C43.9359 2.40933 43.7165 2.33 43.4365 2.33C42.2699 2.33 41.7192 3.38 41.7845 5.48ZM50.3984 6.628C50.529 6.628 50.6364 6.67 50.7204 6.754C50.8044 6.838 50.8464 6.92667 50.8464 7.02C50.8464 7.22533 50.7577 7.41667 50.5804 7.594C50.151 8.02333 49.6704 8.238 49.1384 8.238C48.877 8.238 48.6484 8.18667 48.4524 8.084C48.2564 7.98133 48.1257 7.86 48.0604 7.72C47.9484 7.84133 47.7804 7.94867 47.5564 8.042C47.3324 8.13533 47.113 8.182 46.8984 8.182C46.5344 8.182 46.2217 8.06533 45.9604 7.832C45.699 7.58933 45.5684 7.258 45.5684 6.838C45.5684 6.25933 45.7924 5.71333 46.2404 5.2C46.6884 4.67733 47.211 4.416 47.8084 4.416C48.0884 4.416 48.345 4.514 48.5784 4.71C48.9797 4.71 49.1804 4.79867 49.1804 4.976C49.1804 5.21867 49.1337 5.578 49.0404 6.054C48.9564 6.53 48.9144 6.78667 48.9144 6.824C48.9144 7.076 49.0124 7.202 49.2084 7.202C49.3764 7.202 49.5864 7.10867 49.8384 6.922C50.0904 6.726 50.277 6.628 50.3984 6.628ZM47.0664 7.062C47.3557 7.062 47.6404 6.908 47.9204 6.6C48.051 6.45067 48.1164 6.16133 48.1164 5.732C48.1164 5.66667 48.093 5.61067 48.0464 5.564C47.9997 5.51733 47.9437 5.494 47.8784 5.494C47.5517 5.494 47.2624 5.61067 47.0104 5.844C46.7677 6.07733 46.6464 6.32467 46.6464 6.586C46.6464 6.894 46.7864 7.05267 47.0664 7.062ZM53.5661 6.768C53.7247 6.67467 53.8554 6.628 53.9581 6.628C54.0514 6.628 54.1354 6.66533 54.2101 6.74C54.2941 6.81467 54.3361 6.90333 54.3361 7.006C54.3361 7.174 54.2147 7.37 53.9721 7.594C53.7761 7.77133 53.5101 7.92533 53.1741 8.056C52.8381 8.196 52.4834 8.266 52.1101 8.266C51.5221 8.266 51.0367 8.098 50.6541 7.762C50.2714 7.41667 50.0801 6.94533 50.0801 6.348C50.0801 5.816 50.2574 5.34467 50.6121 4.934C50.9667 4.52333 51.3727 4.318 51.8301 4.318C52.0167 4.318 52.1801 4.35067 52.3201 4.416C52.4694 4.472 52.5767 4.542 52.6421 4.626C52.7167 4.70067 52.7774 4.78933 52.8241 4.892C52.8707 4.99467 52.8987 5.074 52.9081 5.13C52.9174 5.186 52.9221 5.228 52.9221 5.256C52.9221 5.37733 52.8661 5.48933 52.7541 5.592C52.6514 5.68533 52.5347 5.732 52.4041 5.732C52.3107 5.732 52.2081 5.67133 52.0961 5.55C51.9841 5.42867 51.8861 5.368 51.8021 5.368C51.6434 5.368 51.5034 5.44733 51.3821 5.606C51.2607 5.76467 51.2001 5.94667 51.2001 6.152C51.2001 6.46 51.3027 6.73533 51.5081 6.978C51.7227 7.22067 52.0027 7.342 52.3481 7.342C52.4787 7.342 52.6094 7.31867 52.7401 7.272C52.8801 7.22533 52.9874 7.17867 53.0621 7.132C53.1461 7.076 53.2441 7.006 53.3561 6.922C53.4681 6.838 53.5381 6.78667 53.5661 6.768ZM58.3964 6.628C58.4991 6.628 58.5971 6.66533 58.6904 6.74C58.7931 6.81467 58.8444 6.90333 58.8444 7.006C58.8444 7.23933 58.7371 7.454 58.5224 7.65C58.0931 8.06067 57.5657 8.266 56.9404 8.266C56.4177 8.266 55.9837 8.084 55.6384 7.72C55.3024 7.34667 55.1344 7.00133 55.1344 6.684C55.1344 6.544 55.1811 6.42267 55.2744 6.32C55.3677 6.21733 55.4611 6.15667 55.5544 6.138C55.7597 6.10067 55.9464 6.01667 56.1144 5.886C56.2824 5.75533 56.3664 5.62467 56.3664 5.494C56.3664 5.39133 56.3104 5.34 56.1984 5.34C56.0491 5.34 55.8484 5.438 55.5964 5.634C55.3444 5.82067 55.0971 6.10533 54.8544 6.488C54.8544 6.6 54.8591 6.768 54.8684 6.992C54.8777 7.216 54.8824 7.36533 54.8824 7.44C54.8824 7.888 54.6864 8.112 54.2944 8.112C53.9117 8.112 53.7204 7.89267 53.7204 7.454C53.7204 7.41667 53.7251 7.286 53.7344 7.062C53.7437 6.82867 53.7531 6.544 53.7624 6.208C53.7717 5.86267 53.7764 5.52667 53.7764 5.2C53.7764 4.34133 53.7624 3.59467 53.7344 2.96L53.7064 2.022C53.7064 1.59267 53.8277 1.252 54.0704 1C54.3224 0.738667 54.5791 0.608 54.8404 0.608C55.1017 0.608 55.3164 0.72 55.4844 0.944C55.7177 1.28 55.8344 1.63 55.8344 1.994C55.8344 2.98333 55.5311 4.024 54.9244 5.116C55.3444 4.724 55.6617 4.46267 55.8764 4.332C56.1004 4.20133 56.3337 4.136 56.5764 4.136C56.8284 4.136 57.0291 4.22933 57.1784 4.416C57.3277 4.59333 57.4024 4.81733 57.4024 5.088C57.4024 5.40533 57.3231 5.68067 57.1644 5.914C56.8191 6.42733 56.4877 6.712 56.1704 6.768C56.3197 7.11333 56.5717 7.286 56.9264 7.286C57.2064 7.286 57.5004 7.17867 57.8084 6.964C58.1164 6.74 58.3124 6.628 58.3964 6.628ZM54.6444 3.94C54.8311 3.36133 54.9244 2.834 54.9244 2.358C54.9244 2.09667 54.8777 1.966 54.7844 1.966C54.7377 1.966 54.7051 2.04533 54.6864 2.204C54.6677 2.36267 54.6584 2.64267 54.6584 3.044C54.6584 3.436 54.6537 3.73467 54.6444 3.94ZM62.0818 6.628C62.2125 6.628 62.3198 6.67 62.4038 6.754C62.4878 6.838 62.5298 6.92667 62.5298 7.02C62.5298 7.31867 62.3151 7.60333 61.8858 7.874C61.4658 8.14467 60.9011 8.28 60.1918 8.28C59.5478 8.28 59.0345 8.084 58.6518 7.692C58.2785 7.29067 58.0918 6.81 58.0918 6.25C58.0918 6.09133 58.1151 5.92333 58.1618 5.746C58.2085 5.55933 58.2831 5.36333 58.3858 5.158C58.4978 4.94333 58.6658 4.766 58.8898 4.626C59.1231 4.486 59.3985 4.416 59.7158 4.416C60.1078 4.416 60.4158 4.53267 60.6398 4.766C60.8731 4.99933 60.9898 5.29333 60.9898 5.648C60.9898 6.31067 60.6491 6.838 59.9678 7.23C60.4625 7.454 61.0411 7.30467 61.7038 6.782C61.8345 6.67933 61.9605 6.628 62.0818 6.628ZM59.9678 5.774C59.9678 5.69 59.9398 5.61533 59.8838 5.55C59.8371 5.48467 59.7718 5.452 59.6878 5.452C59.5385 5.452 59.4078 5.54067 59.2958 5.718C59.1838 5.886 59.1278 6.082 59.1278 6.306C59.1278 6.51133 59.1651 6.66067 59.2398 6.754C59.4545 6.65133 59.6271 6.50667 59.7578 6.32C59.8978 6.124 59.9678 5.942 59.9678 5.774ZM64.7939 8.28C64.4299 8.28 64.1499 8.196 63.9539 8.028C63.7672 7.86933 63.6739 7.65 63.6739 7.37C63.6739 7.118 63.7345 6.85667 63.8559 6.586C63.9865 6.306 64.0519 6.11933 64.0519 6.026C64.0519 5.92333 64.0099 5.858 63.9259 5.83C63.8512 5.79267 63.7345 5.76467 63.5759 5.746C63.4265 5.72733 63.3005 5.69467 63.1979 5.648C62.9552 6.70267 62.6472 7.43067 62.2739 7.832C62.1712 7.944 62.0265 8 61.8399 8C61.6999 8 61.5832 7.95333 61.4899 7.86C61.3872 7.75733 61.3359 7.62667 61.3359 7.468C61.3359 7.356 61.4572 7.09 61.6999 6.67C61.9425 6.24067 62.1105 5.788 62.2039 5.312C61.9705 5.16267 61.8539 4.92 61.8539 4.584C61.8539 4.35067 61.9145 4.14533 62.0359 3.968C62.1572 3.79067 62.3299 3.702 62.5539 3.702C62.7499 3.702 62.9179 3.786 63.0579 3.954C63.2072 4.122 63.2819 4.346 63.2819 4.626C63.2819 4.766 63.4499 4.836 63.7859 4.836C63.8699 4.836 63.9959 4.82667 64.1639 4.808C64.3319 4.78933 64.4439 4.78 64.4999 4.78C64.6585 4.78 64.8032 4.85933 64.9339 5.018C65.0739 5.17667 65.1439 5.368 65.1439 5.592C65.1439 5.75067 65.1159 5.89067 65.0599 6.012C64.8265 6.55333 64.7099 6.90333 64.7099 7.062C64.7099 7.19267 64.7892 7.258 64.9479 7.258C65.1719 7.258 65.4099 7.15533 65.6619 6.95C65.9139 6.73533 66.1052 6.628 66.2359 6.628C66.3665 6.628 66.4739 6.67 66.5579 6.754C66.6419 6.838 66.6839 6.92667 66.6839 7.02C66.6839 7.22533 66.5952 7.41667 66.4179 7.594C65.9605 8.05133 65.4192 8.28 64.7939 8.28Z" fill="white"/>
</svg>