<svg width="19" height="19" viewBox="0 0 19 19" fill="none" xmlns="http://www.w3.org/2000/svg">
<path d="M13.6399 6.81025L13.9158 5.43771C13.9344 5.35212 13.885 5.26831 13.8058 5.23686L12.9189 4.92263C12.8979 4.8134 12.8706 4.70101 12.8338 4.59182C12.7969 4.48263 12.7506 4.37664 12.6996 4.27224L13.2151 3.48509C13.2591 3.4121 13.2476 3.31551 13.1809 3.25868L12.1302 2.3335C12.0636 2.27667 11.9687 2.27695 11.9025 2.33099L11.1902 2.94131C10.9748 2.86591 10.7532 2.81903 10.5206 2.80228L10.1013 1.96556C10.0804 1.92985 10.048 1.9023 10.0094 1.88744C9.97085 1.87259 9.9284 1.8713 9.88904 1.88381L8.56246 2.33117C8.48191 2.35834 8.43166 2.44402 8.44466 2.52951L8.61765 3.44931C8.44748 3.60187 8.29479 3.77497 8.16906 3.96541L7.23262 3.9111C7.14721 3.90818 7.07153 3.96543 7.05291 4.05102L6.77704 5.42356C6.75842 5.50915 6.80779 5.59295 6.88699 5.6244L7.77389 5.93863C7.7949 6.04787 7.82225 6.16025 7.85907 6.26944C7.89589 6.37863 7.94219 6.48462 7.99322 6.58902L7.47774 7.37617C7.43376 7.44917 7.44523 7.54576 7.51188 7.60259L8.5626 8.52776C8.62926 8.58459 8.72414 8.58432 8.79034 8.53027L9.50265 7.91995C9.71804 7.99536 9.93963 8.04223 10.1722 8.05898L10.5915 8.8957C10.6314 8.96686 10.7232 9.00461 10.8038 8.97745L12.1304 8.53009C12.2109 8.50293 12.2612 8.41725 12.2482 8.33175L12.0752 7.41195C12.2453 7.25939 12.398 7.08629 12.5238 6.89585L13.4602 6.95016C13.5456 6.95308 13.6213 6.89584 13.6399 6.81025ZM10.6666 6.3801C10.1454 6.55585 9.57496 6.27239 9.39885 5.75018C9.22275 5.22797 9.50506 4.65691 10.0262 4.48116C10.5474 4.30541 11.1179 4.58888 11.294 5.11108C11.4701 5.63329 11.1878 6.20435 10.6666 6.3801ZM18.1058 7.92669L17.5325 7.72877C17.5195 7.65911 17.505 7.5847 17.481 7.51349C17.457 7.44228 17.4282 7.37267 17.3916 7.311L17.7232 6.80791C17.7499 6.7619 17.7449 6.70014 17.7005 6.66225L17.0259 6.07021C16.9862 6.03072 16.9246 6.03565 16.8773 6.06747L16.4234 6.45845C16.2856 6.40974 16.1432 6.37848 15.9929 6.37099L15.7234 5.83797C15.713 5.81323 15.6938 5.79324 15.6695 5.78189C15.6452 5.77055 15.6175 5.76865 15.5919 5.77657L14.7439 6.06257C14.6917 6.08014 14.6572 6.1341 14.6701 6.18792L14.7784 6.77526C14.6697 6.87537 14.5689 6.98338 14.4888 7.10558L13.8909 7.06929C13.8636 7.06834 13.837 7.07708 13.8156 7.09396C13.7943 7.11084 13.7796 7.13478 13.7742 7.1615L13.5959 8.04114C13.5883 8.0966 13.6122 8.15197 13.6661 8.17082L14.2346 8.37034C14.2618 8.5155 14.3092 8.65613 14.3755 8.78811L14.0439 9.29119C14.0172 9.33721 14.0222 9.39897 14.0666 9.43686L14.7412 10.0289C14.7809 10.0684 14.8425 10.0635 14.8898 10.0316L15.3437 9.64066C15.4815 9.68936 15.6239 9.72063 15.7742 9.72811L16.0437 10.2611C16.0708 10.3102 16.1262 10.3338 16.1783 10.3162L17.0264 10.0302C17.0785 10.0126 17.1131 9.95866 17.1002 9.90484L16.9918 9.31749C17.1005 9.21739 17.2013 9.10938 17.2767 8.98878L17.8794 9.02347C17.9332 9.02648 17.9836 8.98832 17.996 8.93126L18.1743 8.05162C18.1883 7.99931 18.1549 7.94714 18.1058 7.92669ZM16.0989 8.68807C15.9292 8.74523 15.7436 8.7325 15.5831 8.65267C15.4226 8.57284 15.3003 8.43246 15.243 8.2624C15.1857 8.09234 15.1982 7.90654 15.2777 7.74587C15.3572 7.58519 15.4972 7.46282 15.6669 7.40565C15.8367 7.34849 16.0222 7.36122 16.1827 7.44105C16.3432 7.52088 16.4656 7.66127 16.5228 7.83132C16.5801 8.00138 16.5676 8.18719 16.4881 8.34786C16.4086 8.50853 16.2686 8.63091 16.0989 8.68807Z" fill="white"/>
<path d="M0 17H2V11H0V17ZM9.46 18L6.53 17.36L3.6 16.67C3.43041 16.637 3.27805 16.5448 3.17 16.41C3.05824 16.2791 2.99783 16.1121 3 15.94V11.94C3.00283 11.7688 3.06265 11.6034 3.17 11.47C3.28169 11.3394 3.43246 11.2483 3.6 11.21L8.38 10.62L13.17 10.02L13.32 10.58L13.47 11.13C13.4727 11.3144 13.4204 11.4954 13.32 11.65C13.2281 11.8117 13.0884 11.941 12.92 12.02L10.92 12.52L8.92 13.02L10.54 13.68L12.17 14.33L14.44 13.69L16.65 13C16.8464 12.9504 17.0544 12.9791 17.23 13.08C17.3184 13.1278 17.3961 13.1933 17.458 13.2724C17.52 13.3516 17.5649 13.4427 17.59 13.54L17.78 14.31L17.98 15.07C18.0254 15.2601 17.9968 15.4603 17.9 15.63C17.7971 15.8013 17.6325 15.9266 17.44 15.98L13.81 16.98L10.18 17.98C10.0605 17.9953 9.93951 17.9953 9.82 17.98C9.70192 18.0064 9.58028 18.0132 9.46 18Z" fill="white"/>
</svg>